<svg fill="none" height="24" viewBox="0 0 24 24" width="24" xmlns="http://www.w3.org/2000/svg"><g fill="#0f0f0f"><path d="m10 17h-1v-7.5l5.2182 7.8273c.4688.7032 1.3292 1.0359 2.1492.8309l.2539-.0635c.2226-.0557.3787-.2557.3787-.4851v-10.6096s1 0 1-1h-3c-1 0-1 1-1 1h1v6l-4.8504-6.79062c-.0939-.1314-.24535-.20938-.40683-.20938h-2.74277c-1 0-1 1-1 1h1v10s-1 0-1 1h3c1 0 1-1 1-1z"/><path clip-rule="evenodd" d="m1 4c0-1.65685 1.34315-3 3-3h16c1.6569 0 3 1.34315 3 3v16c0 1.6569-1.3431 3-3 3h-16c-1.65685 0-3-1.3431-3-3zm3-1h16c.5523 0 1 .44772 1 1v16c0 .5523-.4477 1-1 1h-16c-.55228 0-1-.4477-1-1v-16c0-.55228.44772-1 1-1z" fill-rule="evenodd"/></g></svg>