<svg fill="none" height="310" viewBox="0 0 310 310" width="310" xmlns="http://www.w3.org/2000/svg" xmlns:xlink="http://www.w3.org/1999/xlink"><linearGradient id="a" gradientUnits="userSpaceOnUse" x1="241.126" x2="9.93869" y1="66.3576" y2="307.858"><stop offset="0" stop-color="#d7dde8"/><stop offset="1" stop-color="#757f9a"/></linearGradient><g fill="url(#a)"><path clip-rule="evenodd" d="m234.437 11.8747c-2.047-1.6759-4.652-2.517-7.293-2.355l-202.7869 12.439c-5.5389.3398-9.8571 4.931-9.8571 10.4803v190.976c0 2.304.7579 4.544 2.1568 6.375l50.8784 66.585c2.1438 2.806 5.554 4.346 9.0762 4.099l209.1216-14.634c5.501-.385 9.767-4.96 9.767-10.474v-208.5367c0-3.1486-1.413-6.131-3.849-8.1253zm-148.0586 266.8653 188.1216-13.165v-187.5636l-188.1216 11.8481zm-6.6389-209.504 177.9325-11.2064-33.351-27.2973-174.3315 10.6936z" fill-rule="evenodd"/><path d="m218.745 104.654c-6.904 0-12.5 5.596-12.5 12.5 0 6.903 5.596 12.5 12.5 12.5h1.819v63.175l-55.647-75.432c-3.866-5.24-9.616-8.269-15.626-8.842-.805-.162-1.637-.248-2.49-.248h-29.183c-6.903 0-12.5 5.597-12.5 12.5 0 6.904 5.597 12.5 12.5 12.5h7.594v97.871h-4.905c-6.904 0-12.5 5.597-12.5 12.5 0 6.904 5.596 12.5 12.5 12.5h34.576c6.903 0 12.5-5.596 12.5-12.5 0-6.903-5.597-12.5-12.5-12.5h-4.671v-59.597l55.647 75.433c7.213 9.777 20.986 11.856 30.764 4.643 5.872-4.332 8.968-11.03 8.941-17.808v-104.195h.766c6.904 0 12.5-5.597 12.5-12.5 0-6.904-5.596-12.5-12.5-12.5z"/></g></svg>